<mxfile host="app.diagrams.net" modified="2024-04-06T13:17:27.209Z" agent="Mozilla/5.0 (Windows NT 10.0; Win64; x64) AppleWebKit/537.36 (KHTML, like Gecko) Chrome/123.0.0.0 Safari/537.36 Edg/123.0.0.0" version="24.2.2" etag="5KyO_2X-WCw4QbuU8YeH" type="device">
  <diagram id="rZE7s0TBKXpNo14RS-pB" name="Page-1">
    <mxGraphModel dx="2166" dy="1221" grid="0" gridSize="10" guides="1" tooltips="1" connect="1" arrows="1" fold="1" page="0" pageScale="1" pageWidth="850" pageHeight="1100" math="0" shadow="0">
      <root>
        <mxCell id="0" />
        <mxCell id="1" parent="0" />
        <mxCell id="Vpm3eA_R3IIYoN9ALDt3-1" value="organizarea de conferințe științifice" style="shape=umlFrame;whiteSpace=wrap;html=1;pointerEvents=0;width=201;height=40;fontStyle=1;fontSize=15;" vertex="1" parent="1">
          <mxGeometry x="137.92" y="-40" width="742.08" height="754" as="geometry" />
        </mxCell>
        <mxCell id="Vpm3eA_R3IIYoN9ALDt3-2" value="Actor" style="shape=umlActor;verticalLabelPosition=bottom;verticalAlign=top;html=1;fillColor=#d5e8d4;strokeColor=#82b366;fontSize=15;fontStyle=1" vertex="1" parent="1">
          <mxGeometry x="-69.08" y="85.92" width="80" height="110" as="geometry" />
        </mxCell>
        <mxCell id="Vpm3eA_R3IIYoN9ALDt3-3" style="edgeStyle=orthogonalEdgeStyle;rounded=0;orthogonalLoop=1;jettySize=auto;html=1;exitX=0.5;exitY=0;exitDx=0;exitDy=0;exitPerimeter=0;endArrow=block;endFill=0;endSize=16;targetPerimeterSpacing=20;" edge="1" parent="1" source="Vpm3eA_R3IIYoN9ALDt3-4" target="Vpm3eA_R3IIYoN9ALDt3-2">
          <mxGeometry relative="1" as="geometry" />
        </mxCell>
        <mxCell id="Vpm3eA_R3IIYoN9ALDt3-4" value="Utilizator" style="shape=umlActor;verticalLabelPosition=bottom;verticalAlign=top;html=1;fillColor=#dae8fc;strokeColor=#6c8ebf;fontSize=15;fontStyle=1" vertex="1" parent="1">
          <mxGeometry x="-69.08" y="405.92" width="80" height="110" as="geometry" />
        </mxCell>
        <mxCell id="Vpm3eA_R3IIYoN9ALDt3-5" value="Organizator" style="shape=umlActor;verticalLabelPosition=bottom;verticalAlign=top;html=1;fillColor=#ffe6cc;strokeColor=#d79b00;fontSize=15;fontStyle=1;strokeWidth=1;shadow=0;textShadow=0;" vertex="1" parent="1">
          <mxGeometry x="900.92" y="88.21000000000001" width="80" height="110" as="geometry" />
        </mxCell>
        <mxCell id="Vpm3eA_R3IIYoN9ALDt3-6" value="Administrator" style="shape=umlActor;verticalLabelPosition=bottom;verticalAlign=top;html=1;fillColor=#f8cecc;strokeColor=#b85450;fontSize=15;fontStyle=1" vertex="1" parent="1">
          <mxGeometry x="900.92" y="515.9200000000001" width="80" height="110" as="geometry" />
        </mxCell>
        <mxCell id="Vpm3eA_R3IIYoN9ALDt3-7" style="edgeStyle=orthogonalEdgeStyle;rounded=0;orthogonalLoop=1;jettySize=auto;html=1;exitX=0.5;exitY=0;exitDx=0;exitDy=0;exitPerimeter=0;entryX=0.5;entryY=0;entryDx=0;entryDy=0;entryPerimeter=0;strokeColor=default;align=center;verticalAlign=middle;fontFamily=Helvetica;fontSize=11;fontColor=default;labelBackgroundColor=default;endArrow=block;endFill=0;endSize=16;targetPerimeterSpacing=20;" edge="1" parent="1" target="Vpm3eA_R3IIYoN9ALDt3-2">
          <mxGeometry relative="1" as="geometry">
            <mxPoint x="940.9200000000001" y="85.92000000000007" as="sourcePoint" />
            <mxPoint x="-29.08" y="75.92" as="targetPoint" />
            <Array as="points">
              <mxPoint x="941" y="-80" />
              <mxPoint x="-29" y="-80" />
            </Array>
          </mxGeometry>
        </mxCell>
        <mxCell id="Vpm3eA_R3IIYoN9ALDt3-8" style="edgeStyle=orthogonalEdgeStyle;rounded=0;orthogonalLoop=1;jettySize=auto;html=1;strokeColor=default;align=center;verticalAlign=middle;fontFamily=Helvetica;fontSize=11;fontColor=default;labelBackgroundColor=default;endArrow=block;endFill=0;endSize=16;targetPerimeterSpacing=20;entryX=0.25;entryY=0.1;entryDx=0;entryDy=0;entryPerimeter=0;" edge="1" parent="1" source="Vpm3eA_R3IIYoN9ALDt3-6" target="Vpm3eA_R3IIYoN9ALDt3-2">
          <mxGeometry relative="1" as="geometry">
            <mxPoint x="-79.08" y="53.92" as="targetPoint" />
            <Array as="points">
              <mxPoint x="1052" y="571" />
              <mxPoint x="1052" y="-101" />
              <mxPoint x="-79" y="-101" />
              <mxPoint x="-79" y="97" />
            </Array>
          </mxGeometry>
        </mxCell>
        <mxCell id="Vpm3eA_R3IIYoN9ALDt3-9" value="Înscriere la conferință;&lt;div style=&quot;font-size: 15px;&quot;&gt;&lt;br style=&quot;font-size: 15px;&quot;&gt;&lt;/div&gt;" style="ellipse;html=1;verticalAlign=middle;fontFamily=Times New Roman;whiteSpace=wrap;fillColor=#d5e8d4;strokeColor=#82b366;fontSize=15;" vertex="1" parent="1">
          <mxGeometry x="212.42999999999998" y="175.9242857142857" width="130" height="70" as="geometry" />
        </mxCell>
        <mxCell id="Vpm3eA_R3IIYoN9ALDt3-10" value="Vizualizare program conferințe" style="ellipse;html=1;verticalAlign=middle;fontFamily=Times New Roman;whiteSpace=wrap;fillColor=#d5e8d4;strokeColor=#82b366;fontSize=15;" vertex="1" parent="1">
          <mxGeometry x="212.42943396226414" y="88.20714285714287" width="130" height="70" as="geometry" />
        </mxCell>
        <mxCell id="Vpm3eA_R3IIYoN9ALDt3-49" style="edgeStyle=none;rounded=0;orthogonalLoop=1;jettySize=auto;html=1;strokeColor=default;align=center;verticalAlign=middle;fontFamily=Helvetica;fontSize=11;fontColor=default;labelBackgroundColor=default;startArrow=classic;startFill=1;endArrow=none;endFill=0;targetPerimeterSpacing=5;" edge="1" parent="1" source="Vpm3eA_R3IIYoN9ALDt3-11" target="Vpm3eA_R3IIYoN9ALDt3-5">
          <mxGeometry relative="1" as="geometry" />
        </mxCell>
        <mxCell id="Vpm3eA_R3IIYoN9ALDt3-52" style="edgeStyle=orthogonalEdgeStyle;rounded=0;orthogonalLoop=1;jettySize=auto;html=1;dashed=1;dashPattern=12 12;strokeColor=default;align=center;verticalAlign=middle;fontFamily=Times New Roman;fontSize=15;fontColor=default;labelBackgroundColor=default;startArrow=classic;startFill=1;startSize=10;endArrow=none;endFill=0;endSize=10;entryX=0;entryY=0.5;entryDx=0;entryDy=0;" edge="1" parent="1" source="Vpm3eA_R3IIYoN9ALDt3-11" target="Vpm3eA_R3IIYoN9ALDt3-19">
          <mxGeometry relative="1" as="geometry">
            <Array as="points">
              <mxPoint x="430" y="80" />
              <mxPoint x="461" y="80" />
            </Array>
          </mxGeometry>
        </mxCell>
        <mxCell id="Vpm3eA_R3IIYoN9ALDt3-53" style="edgeStyle=none;rounded=0;orthogonalLoop=1;jettySize=auto;html=1;dashed=1;dashPattern=12 12;strokeColor=default;align=center;verticalAlign=middle;fontFamily=Times New Roman;fontSize=15;fontColor=default;labelBackgroundColor=default;startArrow=classic;startFill=1;startSize=10;endArrow=none;endFill=0;endSize=10;entryX=0.021;entryY=0.652;entryDx=0;entryDy=0;entryPerimeter=0;" edge="1" parent="1" target="Vpm3eA_R3IIYoN9ALDt3-36">
          <mxGeometry relative="1" as="geometry">
            <mxPoint x="440" y="320" as="sourcePoint" />
            <mxPoint x="470" y="180" as="targetPoint" />
            <Array as="points">
              <mxPoint x="460" y="190" />
            </Array>
          </mxGeometry>
        </mxCell>
        <mxCell id="Vpm3eA_R3IIYoN9ALDt3-55" style="edgeStyle=none;rounded=0;orthogonalLoop=1;jettySize=auto;html=1;dashed=1;dashPattern=12 12;strokeColor=default;align=center;verticalAlign=middle;fontFamily=Times New Roman;fontSize=15;fontColor=default;labelBackgroundColor=default;startArrow=classic;startFill=1;startSize=10;endArrow=none;endFill=0;endSize=10;" edge="1" parent="1" source="Vpm3eA_R3IIYoN9ALDt3-11" target="Vpm3eA_R3IIYoN9ALDt3-37">
          <mxGeometry relative="1" as="geometry" />
        </mxCell>
        <mxCell id="Vpm3eA_R3IIYoN9ALDt3-56" style="edgeStyle=none;rounded=0;orthogonalLoop=1;jettySize=auto;html=1;dashed=1;dashPattern=12 12;strokeColor=default;align=center;verticalAlign=middle;fontFamily=Times New Roman;fontSize=15;fontColor=default;labelBackgroundColor=default;startArrow=classic;startFill=1;startSize=10;endArrow=none;endFill=0;endSize=10;exitX=0.194;exitY=0.069;exitDx=0;exitDy=0;exitPerimeter=0;" edge="1" parent="1" source="Vpm3eA_R3IIYoN9ALDt3-11" target="Vpm3eA_R3IIYoN9ALDt3-17">
          <mxGeometry relative="1" as="geometry">
            <Array as="points">
              <mxPoint x="407" y="190" />
              <mxPoint x="410" y="40" />
            </Array>
          </mxGeometry>
        </mxCell>
        <mxCell id="Vpm3eA_R3IIYoN9ALDt3-58" style="edgeStyle=none;rounded=0;orthogonalLoop=1;jettySize=auto;html=1;dashed=1;dashPattern=12 12;strokeColor=default;align=center;verticalAlign=middle;fontFamily=Times New Roman;fontSize=15;fontColor=default;labelBackgroundColor=default;startArrow=classic;startFill=1;startSize=10;endArrow=none;endFill=0;endSize=10;exitX=0.088;exitY=0.219;exitDx=0;exitDy=0;exitPerimeter=0;entryX=0.077;entryY=0.143;entryDx=0;entryDy=0;entryPerimeter=0;" edge="1" parent="1" source="Vpm3eA_R3IIYoN9ALDt3-11" target="Vpm3eA_R3IIYoN9ALDt3-15">
          <mxGeometry relative="1" as="geometry">
            <Array as="points">
              <mxPoint x="389" y="-20" />
            </Array>
          </mxGeometry>
        </mxCell>
        <mxCell id="Vpm3eA_R3IIYoN9ALDt3-59" style="edgeStyle=none;rounded=0;orthogonalLoop=1;jettySize=auto;html=1;dashed=1;dashPattern=12 12;strokeColor=default;align=center;verticalAlign=middle;fontFamily=Times New Roman;fontSize=15;fontColor=default;labelBackgroundColor=default;startArrow=classic;startFill=1;startSize=10;endArrow=none;endFill=0;endSize=10;" edge="1" parent="1" source="Vpm3eA_R3IIYoN9ALDt3-11" target="Vpm3eA_R3IIYoN9ALDt3-38">
          <mxGeometry relative="1" as="geometry" />
        </mxCell>
        <mxCell id="Vpm3eA_R3IIYoN9ALDt3-11" value="LOGIN" style="ellipse;html=1;verticalAlign=middle;fontFamily=Times New Roman;whiteSpace=wrap;fillColor=#d0cee2;strokeColor=#56517e;fontSize=15;fontStyle=1" vertex="1" parent="1">
          <mxGeometry x="385.0709433962264" y="322.9157142857142" width="150" height="80" as="geometry" />
        </mxCell>
        <mxCell id="Vpm3eA_R3IIYoN9ALDt3-12" style="edgeStyle=none;rounded=0;orthogonalLoop=1;jettySize=auto;html=1;dashed=1;dashPattern=12 12;strokeColor=default;align=center;verticalAlign=middle;fontFamily=Times New Roman;fontSize=15;fontColor=default;labelBackgroundColor=default;startArrow=classic;startFill=1;startSize=10;endArrow=none;endFill=0;endSize=10;" edge="1" parent="1" source="Vpm3eA_R3IIYoN9ALDt3-13" target="Vpm3eA_R3IIYoN9ALDt3-11">
          <mxGeometry relative="1" as="geometry" />
        </mxCell>
        <mxCell id="Vpm3eA_R3IIYoN9ALDt3-13" value="Accesare volum conferința" style="ellipse;html=1;verticalAlign=middle;fontFamily=Times New Roman;whiteSpace=wrap;fillColor=#dae8fc;strokeColor=#6c8ebf;fontSize=15;" vertex="1" parent="1">
          <mxGeometry x="212.42943396226414" y="520.2071428571428" width="130" height="70" as="geometry" />
        </mxCell>
        <mxCell id="Vpm3eA_R3IIYoN9ALDt3-48" style="edgeStyle=none;rounded=0;orthogonalLoop=1;jettySize=auto;html=1;strokeColor=default;align=center;verticalAlign=middle;fontFamily=Helvetica;fontSize=11;fontColor=default;labelBackgroundColor=default;startArrow=classic;startFill=1;endArrow=none;endFill=0;targetPerimeterSpacing=5;" edge="1" parent="1" source="Vpm3eA_R3IIYoN9ALDt3-15" target="Vpm3eA_R3IIYoN9ALDt3-5">
          <mxGeometry relative="1" as="geometry" />
        </mxCell>
        <mxCell id="Vpm3eA_R3IIYoN9ALDt3-15" value="Management&lt;br style=&quot;font-size: 15px;&quot;&gt;Participanti" style="ellipse;html=1;verticalAlign=middle;fontFamily=Times New Roman;whiteSpace=wrap;fillColor=#ffe6cc;strokeColor=#d79b00;fontSize=15;" vertex="1" parent="1">
          <mxGeometry x="729.9962264150943" y="-29.994285714285724" width="130" height="70" as="geometry" />
        </mxCell>
        <mxCell id="Vpm3eA_R3IIYoN9ALDt3-47" style="edgeStyle=none;rounded=0;orthogonalLoop=1;jettySize=auto;html=1;strokeColor=default;align=center;verticalAlign=middle;fontFamily=Helvetica;fontSize=11;fontColor=default;labelBackgroundColor=default;startArrow=classic;startFill=1;endArrow=none;endFill=0;targetPerimeterSpacing=5;" edge="1" parent="1" source="Vpm3eA_R3IIYoN9ALDt3-17" target="Vpm3eA_R3IIYoN9ALDt3-5">
          <mxGeometry relative="1" as="geometry" />
        </mxCell>
        <mxCell id="Vpm3eA_R3IIYoN9ALDt3-17" value="Management&lt;br style=&quot;font-size: 15px;&quot;&gt;Lucrari prezentate" style="ellipse;html=1;verticalAlign=middle;fontFamily=Times New Roman;whiteSpace=wrap;fillColor=#ffe6cc;strokeColor=#d79b00;fontSize=15;" vertex="1" parent="1">
          <mxGeometry x="599.9962264150944" y="0.0014285714285904305" width="130" height="70" as="geometry" />
        </mxCell>
        <mxCell id="Vpm3eA_R3IIYoN9ALDt3-46" style="edgeStyle=none;rounded=0;orthogonalLoop=1;jettySize=auto;html=1;strokeColor=default;align=center;verticalAlign=middle;fontFamily=Helvetica;fontSize=11;fontColor=default;labelBackgroundColor=default;startArrow=classic;startFill=1;endArrow=none;endFill=0;targetPerimeterSpacing=5;" edge="1" parent="1" source="Vpm3eA_R3IIYoN9ALDt3-19" target="Vpm3eA_R3IIYoN9ALDt3-5">
          <mxGeometry relative="1" as="geometry" />
        </mxCell>
        <mxCell id="Vpm3eA_R3IIYoN9ALDt3-19" value="Cautare participanti dupa sectiune" style="ellipse;html=1;verticalAlign=middle;fontFamily=Times New Roman;whiteSpace=wrap;fillColor=#ffe6cc;strokeColor=#d79b00;fontSize=15;" vertex="1" parent="1">
          <mxGeometry x="460.91622641509434" y="50.000000000000014" width="130" height="70" as="geometry" />
        </mxCell>
        <mxCell id="Vpm3eA_R3IIYoN9ALDt3-20" style="edgeStyle=none;rounded=0;orthogonalLoop=1;jettySize=auto;html=1;exitX=0.5;exitY=0;exitDx=0;exitDy=0;dashed=1;dashPattern=12 12;fontFamily=Times New Roman;fontSize=15;strokeColor=default;align=center;verticalAlign=middle;fontColor=default;labelBackgroundColor=default;startArrow=classic;startFill=1;endArrow=none;endFill=0;endSize=10;startSize=10;" edge="1" parent="1" source="Vpm3eA_R3IIYoN9ALDt3-21">
          <mxGeometry relative="1" as="geometry">
            <mxPoint x="517.9200000000001" y="388.9200000000001" as="targetPoint" />
          </mxGeometry>
        </mxCell>
        <mxCell id="Vpm3eA_R3IIYoN9ALDt3-21" value="&lt;font style=&quot;font-size: 15px;&quot;&gt;Management&lt;br style=&quot;font-size: 15px;&quot;&gt;&lt;/font&gt;Utilizatori" style="ellipse;html=1;verticalAlign=middle;fontFamily=Times New Roman;whiteSpace=wrap;fillColor=#f8cecc;strokeColor=#b85450;fontSize=15;" vertex="1" parent="1">
          <mxGeometry x="560.9230188679245" y="520.2057142857143" width="130" height="70" as="geometry" />
        </mxCell>
        <mxCell id="Vpm3eA_R3IIYoN9ALDt3-22" style="edgeStyle=none;rounded=0;orthogonalLoop=1;jettySize=auto;html=1;exitX=0;exitY=0;exitDx=0;exitDy=0;entryX=0.5;entryY=1;entryDx=0;entryDy=0;dashed=1;dashPattern=12 12;strokeColor=default;align=center;verticalAlign=middle;fontFamily=Times New Roman;fontSize=15;fontColor=default;labelBackgroundColor=default;endArrow=none;startArrow=classic;startFill=1;endFill=0;startSize=10;endSize=10;" edge="1" parent="1" source="Vpm3eA_R3IIYoN9ALDt3-23" target="Vpm3eA_R3IIYoN9ALDt3-11">
          <mxGeometry relative="1" as="geometry" />
        </mxCell>
        <mxCell id="Vpm3eA_R3IIYoN9ALDt3-23" value="Vizualizare&lt;br style=&quot;font-size: 15px;&quot;&gt;Utilizatori" style="ellipse;html=1;verticalAlign=middle;fontFamily=Times New Roman;whiteSpace=wrap;fillColor=#f8cecc;strokeColor=#b85450;fontSize=15;" vertex="1" parent="1">
          <mxGeometry x="560.9230188679245" y="623.0628571428571" width="130" height="70" as="geometry" />
        </mxCell>
        <mxCell id="Vpm3eA_R3IIYoN9ALDt3-24" style="edgeStyle=none;rounded=0;orthogonalLoop=1;jettySize=auto;html=1;exitX=0.5;exitY=0;exitDx=0;exitDy=0;fontFamily=Times New Roman;fontSize=15;verticalAlign=middle;" edge="1" parent="1" source="Vpm3eA_R3IIYoN9ALDt3-19" target="Vpm3eA_R3IIYoN9ALDt3-19">
          <mxGeometry relative="1" as="geometry" />
        </mxCell>
        <mxCell id="Vpm3eA_R3IIYoN9ALDt3-25" style="edgeStyle=none;rounded=0;orthogonalLoop=1;jettySize=auto;html=1;entryX=1;entryY=0.5;entryDx=0;entryDy=0;strokeColor=default;align=center;verticalAlign=middle;fontFamily=Times New Roman;fontSize=15;fontColor=default;labelBackgroundColor=default;endArrow=classic;endSize=10;" edge="1" parent="1" target="Vpm3eA_R3IIYoN9ALDt3-23">
          <mxGeometry relative="1" as="geometry">
            <mxPoint x="900.9200000000001" y="584.8630255114667" as="sourcePoint" />
          </mxGeometry>
        </mxCell>
        <mxCell id="Vpm3eA_R3IIYoN9ALDt3-26" style="edgeStyle=none;rounded=0;orthogonalLoop=1;jettySize=auto;html=1;strokeColor=default;align=center;verticalAlign=middle;fontFamily=Times New Roman;fontSize=15;fontColor=default;labelBackgroundColor=default;endArrow=classic;endSize=10;" edge="1" parent="1" target="Vpm3eA_R3IIYoN9ALDt3-21">
          <mxGeometry relative="1" as="geometry">
            <mxPoint x="900.9200000000001" y="568.9049875239011" as="sourcePoint" />
          </mxGeometry>
        </mxCell>
        <mxCell id="Vpm3eA_R3IIYoN9ALDt3-27" style="edgeStyle=none;rounded=0;orthogonalLoop=1;jettySize=auto;html=1;entryX=1;entryY=0.5;entryDx=0;entryDy=0;strokeColor=default;align=center;verticalAlign=middle;fontFamily=Times New Roman;fontSize=15;fontColor=default;labelBackgroundColor=default;endArrow=classic;endSize=10;" edge="1" parent="1" target="Vpm3eA_R3IIYoN9ALDt3-11">
          <mxGeometry relative="1" as="geometry">
            <mxPoint x="900.9200000000001" y="550.4193451550775" as="sourcePoint" />
          </mxGeometry>
        </mxCell>
        <mxCell id="Vpm3eA_R3IIYoN9ALDt3-32" style="edgeStyle=none;rounded=0;orthogonalLoop=1;jettySize=auto;html=1;entryX=0;entryY=0.5;entryDx=0;entryDy=0;strokeColor=default;align=center;verticalAlign=middle;fontFamily=Times New Roman;fontSize=15;fontColor=default;labelBackgroundColor=default;endArrow=classic;endSize=10;" edge="1" parent="1" target="Vpm3eA_R3IIYoN9ALDt3-13">
          <mxGeometry relative="1" as="geometry">
            <mxPoint x="10.920000000000073" y="476.5363080357149" as="sourcePoint" />
          </mxGeometry>
        </mxCell>
        <mxCell id="Vpm3eA_R3IIYoN9ALDt3-33" style="edgeStyle=none;rounded=0;orthogonalLoop=1;jettySize=auto;html=1;entryX=0;entryY=0.5;entryDx=0;entryDy=0;strokeColor=default;align=center;verticalAlign=middle;fontFamily=Times New Roman;fontSize=15;fontColor=default;labelBackgroundColor=default;endArrow=classic;endSize=10;" edge="1" parent="1" target="Vpm3eA_R3IIYoN9ALDt3-11">
          <mxGeometry relative="1" as="geometry">
            <mxPoint x="10.920000000000073" y="451.4544380084608" as="sourcePoint" />
          </mxGeometry>
        </mxCell>
        <mxCell id="Vpm3eA_R3IIYoN9ALDt3-34" style="edgeStyle=none;rounded=0;orthogonalLoop=1;jettySize=auto;html=1;entryX=0;entryY=0.5;entryDx=0;entryDy=0;strokeColor=default;align=center;verticalAlign=middle;fontFamily=Times New Roman;fontSize=15;fontColor=default;labelBackgroundColor=default;endArrow=classic;endSize=10;" edge="1" parent="1" target="Vpm3eA_R3IIYoN9ALDt3-10">
          <mxGeometry relative="1" as="geometry">
            <mxPoint x="10.920000000000073" y="137.98630803571427" as="sourcePoint" />
          </mxGeometry>
        </mxCell>
        <mxCell id="Vpm3eA_R3IIYoN9ALDt3-35" style="edgeStyle=none;rounded=0;orthogonalLoop=1;jettySize=auto;html=1;entryX=0;entryY=0.5;entryDx=0;entryDy=0;strokeColor=default;align=center;verticalAlign=middle;fontFamily=Times New Roman;fontSize=15;fontColor=default;labelBackgroundColor=default;endArrow=classic;endSize=10;" edge="1" parent="1" target="Vpm3eA_R3IIYoN9ALDt3-9">
          <mxGeometry relative="1" as="geometry">
            <mxPoint x="10.920000000000073" y="152.51443264697764" as="sourcePoint" />
          </mxGeometry>
        </mxCell>
        <mxCell id="Vpm3eA_R3IIYoN9ALDt3-45" style="edgeStyle=none;rounded=0;orthogonalLoop=1;jettySize=auto;html=1;strokeColor=default;align=center;verticalAlign=middle;fontFamily=Helvetica;fontSize=11;fontColor=default;labelBackgroundColor=default;startArrow=classic;startFill=1;endArrow=none;endFill=0;targetPerimeterSpacing=5;" edge="1" parent="1" source="Vpm3eA_R3IIYoN9ALDt3-36" target="Vpm3eA_R3IIYoN9ALDt3-5">
          <mxGeometry relative="1" as="geometry" />
        </mxCell>
        <mxCell id="Vpm3eA_R3IIYoN9ALDt3-36" value="Cautare prezentare dupa sectiune" style="ellipse;html=1;verticalAlign=middle;fontFamily=Times New Roman;whiteSpace=wrap;fillColor=#ffe6cc;strokeColor=#d79b00;fontSize=15;" vertex="1" parent="1">
          <mxGeometry x="460.91622641509423" y="128.21" width="130" height="70" as="geometry" />
        </mxCell>
        <mxCell id="Vpm3eA_R3IIYoN9ALDt3-44" style="edgeStyle=none;rounded=0;orthogonalLoop=1;jettySize=auto;html=1;strokeColor=default;align=center;verticalAlign=middle;fontFamily=Helvetica;fontSize=11;fontColor=default;labelBackgroundColor=default;startArrow=classic;startFill=1;endArrow=none;endFill=0;targetPerimeterSpacing=5;" edge="1" parent="1" source="Vpm3eA_R3IIYoN9ALDt3-37" target="Vpm3eA_R3IIYoN9ALDt3-5">
          <mxGeometry relative="1" as="geometry" />
        </mxCell>
        <mxCell id="Vpm3eA_R3IIYoN9ALDt3-37" value="Exportul Prezentarilor în Formate Diverse" style="ellipse;html=1;verticalAlign=middle;fontFamily=Times New Roman;whiteSpace=wrap;fillColor=#ffe6cc;strokeColor=#d79b00;fontSize=15;" vertex="1" parent="1">
          <mxGeometry x="460.9162264150943" y="210" width="130" height="70" as="geometry" />
        </mxCell>
        <mxCell id="Vpm3eA_R3IIYoN9ALDt3-50" style="edgeStyle=none;rounded=0;orthogonalLoop=1;jettySize=auto;html=1;strokeColor=default;align=center;verticalAlign=middle;fontFamily=Helvetica;fontSize=11;fontColor=default;labelBackgroundColor=default;startArrow=classic;startFill=1;endArrow=none;endFill=0;targetPerimeterSpacing=5;" edge="1" parent="1" source="Vpm3eA_R3IIYoN9ALDt3-38" target="Vpm3eA_R3IIYoN9ALDt3-5">
          <mxGeometry relative="1" as="geometry" />
        </mxCell>
        <mxCell id="Vpm3eA_R3IIYoN9ALDt3-38" value="Acceptarea sau Respingerea Participantilor" style="ellipse;html=1;verticalAlign=middle;fontFamily=Times New Roman;whiteSpace=wrap;fillColor=#ffe6cc;strokeColor=#d79b00;fontSize=15;" vertex="1" parent="1">
          <mxGeometry x="699.9962264150944" y="322.9114285714286" width="130" height="70" as="geometry" />
        </mxCell>
      </root>
    </mxGraphModel>
  </diagram>
</mxfile>
